# Blender v2.76 (sub 0) OBJ File: ''
# www.blender.org
mtllib androidobj.mtl
o Cube
v 1.000000 -1.000000 -1.000000
v 1.000000 -1.000000 1.000000
v -1.000000 -1.000000 1.000000
v -1.000000 -1.000000 -1.000000
v 1.000000 1.000000 -0.999999
v 0.999999 1.000000 1.000001
v -1.000000 1.000000 1.000000
v -1.000000 1.000000 -1.000000
vt 0.471212 0.080001
vt 0.248092 0.080932
vt 0.249023 0.817713
vt 0.918382 0.814921
vt 0.917451 0.078140
vt 0.694331 0.079071
vt 0.695262 0.815851
vt 0.470281 0.023888
vt 0.247161 0.024818
vt 0.024972 0.081863
vt 0.025903 0.818644
vt 0.472142 0.816782
vt 0.249954 0.949457
vt 0.473073 0.948526
vn 0.000000 -1.000000 0.000000
vn 0.000000 1.000000 0.000000
vn 1.000000 0.000000 0.000000
vn -0.000000 0.000000 1.000000
vn -1.000000 -0.000000 -0.000000
vn 0.000000 0.000000 -1.000000
usemtl Material
s off
f 2/1/1 3/2/1 4/3/1
f 8/4/2 7/5/2 6/6/2
f 5/7/3 6/6/3 2/1/3
f 6/8/4 7/9/4 3/2/4
f 3/2/5 7/10/5 8/11/5
f 1/12/6 4/3/6 8/13/6
f 1/12/1 2/1/1 4/3/1
f 5/7/2 8/4/2 6/6/2
f 1/12/3 5/7/3 2/1/3
f 2/1/4 6/8/4 3/2/4
f 4/3/5 3/2/5 8/11/5
f 5/14/6 1/12/6 8/13/6
